<svg width="1500" height="500" viewBox="0 0 1500 500" fill="none" xmlns="http://www.w3.org/2000/svg">
<g clip-path="url(#clip0_576_3)">
<rect width="1500" height="500" fill="#343434"/>
<path d="M-2 361.5C225 361.5 171.697 326 268.5 326C333 326 522.548 456.121 668 470C799 482.5 791.495 428.5 1000.5 428.5C1184 428.5 1123 355 1292 364.5C1378.5 369.362 1458.98 399.443 1500 374V503H-2V361.5Z" fill="#5BC7EA"/>
<path d="M538.777 264.562L529.051 284.602C528.777 285.188 528.387 285.754 527.879 286.301C526.707 287.434 525.32 288 523.719 288C522.078 288 520.691 287.434 519.559 286.301C518.426 285.129 517.859 283.742 517.859 282.141C517.859 281.008 518.152 279.992 518.738 279.094L553.484 207.492C553.758 206.867 554.168 206.281 554.715 205.734C555.848 204.562 557.234 203.977 558.875 203.977C560.477 203.977 561.863 204.562 563.035 205.734C563.504 206.203 563.875 206.711 564.148 207.258L598.895 278.859C599.559 279.797 599.891 280.891 599.891 282.141C599.891 283.742 599.305 285.129 598.133 286.301C597 287.434 595.633 288 594.031 288C592.391 288 591.004 287.434 589.871 286.301C589.363 285.754 588.973 285.188 588.699 284.602H588.641L578.914 264.562H538.777ZM573.23 252.844L558.875 223.254L544.461 252.844H573.23ZM641.609 242.824C639.461 241.848 637.098 241.359 634.52 241.359C629.715 241.359 625.613 243.059 622.215 246.457C618.816 249.816 617.117 253.898 617.117 258.703C617.117 263.508 618.816 267.609 622.215 271.008C625.613 274.406 629.715 276.105 634.52 276.105C639.285 276.105 643.367 274.426 646.766 271.066C646.805 271.027 646.844 270.988 646.883 270.949C648.016 269.816 649.402 269.25 651.043 269.25C652.684 269.25 654.09 269.836 655.262 271.008C656.434 272.141 657.02 273.527 657.02 275.168C657.02 276.809 656.434 278.215 655.262 279.387C655.223 279.426 655.184 279.465 655.145 279.504C649.48 285.168 642.605 288 634.52 288C626.434 288 619.539 285.148 613.836 279.445C608.133 273.742 605.281 266.848 605.281 258.762C605.281 250.676 608.133 243.781 613.836 238.078C619.539 232.375 626.434 229.523 634.52 229.523C642.605 229.523 649.48 232.355 655.145 238.02L655.086 238.078C655.086 238.117 655.105 238.137 655.145 238.137C656.277 239.27 656.844 240.656 656.844 242.297C656.844 243.898 656.277 245.266 655.145 246.398L638.387 263.039C637.215 264.172 635.809 264.738 634.168 264.738C632.488 264.738 631.062 264.172 629.891 263.039C628.758 261.867 628.191 260.441 628.191 258.762C628.191 257.121 628.758 255.715 629.891 254.543L641.609 242.824ZM698.914 229.406C700.555 229.406 701.961 229.992 703.133 231.164C704.305 232.336 704.891 233.742 704.891 235.383C704.891 237.023 704.305 238.43 703.133 239.602C701.961 240.773 700.555 241.359 698.914 241.359H698.855C694.051 241.359 689.949 243.059 686.551 246.457C683.426 249.543 681.746 253.234 681.512 257.531C681.551 257.883 681.57 258.234 681.57 258.586V281.203C681.57 283.391 680.984 285.07 679.812 286.242C678.641 287.414 677.234 288 675.594 288C673.953 288 672.547 287.414 671.375 286.242C670.203 285.07 669.617 283.352 669.617 281.086V258.469C669.695 250.5 672.547 243.703 678.172 238.078C683.562 232.688 690.477 229.797 698.914 229.406ZM751.414 284.191C751.141 284.973 750.691 285.656 750.066 286.242C748.934 287.414 747.547 288 745.906 288C744.305 288 742.938 287.414 741.805 286.242C741.18 285.656 740.73 284.992 740.457 284.25L717.664 238.605C716.961 237.629 716.609 236.516 716.609 235.266C716.609 233.664 717.176 232.297 718.309 231.164C719.48 229.992 720.867 229.406 722.469 229.406C724.109 229.406 725.496 229.973 726.629 231.105C727.02 231.496 727.332 231.906 727.566 232.336H727.625L745.906 268.957L764.188 232.336L764.246 232.395C764.52 231.926 764.852 231.496 765.242 231.105C766.375 229.973 767.742 229.406 769.344 229.406C770.984 229.406 772.371 229.992 773.504 231.164C774.637 232.297 775.203 233.664 775.203 235.266C775.203 236.555 774.832 237.688 774.09 238.664L751.414 284.191ZM787.742 238.078C787.273 237.219 787.039 236.281 787.039 235.266C787.039 233.625 787.605 232.238 788.738 231.105C789.871 229.973 791.258 229.406 792.898 229.406C794.5 229.406 795.887 229.973 797.059 231.105C797.684 231.73 798.133 232.453 798.406 233.273L816.336 269.074L834.207 233.273C834.48 232.492 834.949 231.77 835.613 231.105C836.746 229.973 838.133 229.406 839.773 229.406C841.375 229.406 842.742 229.973 843.875 231.105C845.047 232.238 845.633 233.625 845.633 235.266C845.633 236.203 845.438 237.062 845.047 237.844L810.359 307.512C809.969 308.293 809.441 309.016 808.777 309.68C807.605 310.852 806.219 311.438 804.617 311.438C802.977 311.438 801.59 310.852 800.457 309.68C799.324 308.547 798.758 307.18 798.758 305.578C798.758 304.328 799.012 303.195 799.52 302.18L809.773 282.141L787.742 238.078ZM879.676 229.523C887.762 229.523 894.656 232.375 900.359 238.078C906.062 243.781 908.914 250.676 908.914 258.762C908.914 266.848 906.062 273.742 900.359 279.445C894.656 285.148 887.762 288 879.676 288C871.59 288 864.695 285.148 858.992 279.445C853.289 273.742 850.438 266.848 850.438 258.762C850.438 250.676 853.289 243.781 858.992 238.078C864.695 232.375 871.59 229.523 879.676 229.523ZM879.676 241.359C874.871 241.359 870.77 243.059 867.371 246.457C863.973 249.816 862.273 253.898 862.273 258.703C862.273 263.508 863.973 267.609 867.371 271.008C870.77 274.406 874.871 276.105 879.676 276.105C884.48 276.105 888.562 274.406 891.922 271.008C895.32 267.609 897.02 263.508 897.02 258.703C897.02 253.898 895.32 249.816 891.922 246.457C888.562 243.059 884.48 241.359 879.676 241.359ZM950.691 229.406C958.934 229.875 965.711 232.766 971.023 238.078C976.648 243.703 979.5 250.5 979.578 258.469V281.086C979.578 283.352 978.992 285.07 977.82 286.242C976.648 287.414 975.242 288 973.602 288C971.961 288 970.555 287.414 969.383 286.242C968.211 285.07 967.625 283.391 967.625 281.203V258.586C967.625 258.234 967.645 257.883 967.684 257.531C967.449 253.234 965.77 249.543 962.645 246.457C959.246 243.059 955.145 241.359 950.34 241.359H950.105C945.301 241.359 941.199 243.059 937.801 246.457C934.676 249.543 932.996 253.234 932.762 257.531C932.801 257.883 932.82 258.234 932.82 258.586V281.203C932.82 283.391 932.234 285.07 931.062 286.242C929.891 287.414 928.484 288 926.844 288C925.203 288 923.797 287.414 922.625 286.242C921.453 285.07 920.867 283.352 920.867 281.086V258.469C920.945 250.5 923.797 243.703 929.422 238.078C934.734 232.766 941.512 229.875 949.754 229.406H950.691Z" fill="white"/>
<path d="M472 383.908C471.287 383.908 470.625 383.723 470.006 383.402L463.696 379.781C462.748 379.277 463.223 379.094 463.508 379.002C464.787 378.59 465.025 378.498 466.354 377.763C466.496 377.671 466.687 377.717 466.829 377.808L471.669 380.606C471.856 380.698 472.096 380.698 472.237 380.606L491.169 370.015C491.356 369.923 491.452 369.74 491.452 369.51V348.373C491.452 348.144 491.358 347.96 491.169 347.869L472.237 337.325C472.048 337.233 471.81 337.233 471.669 337.325L452.737 347.869C452.548 347.96 452.452 348.19 452.452 348.373V369.51C452.452 369.694 452.548 369.923 452.737 370.015L457.908 372.904C460.708 374.279 462.462 372.675 462.462 371.071V350.208C462.462 349.933 462.7 349.658 463.033 349.658H465.452C465.737 349.658 466.021 349.888 466.021 350.208V371.069C466.021 374.692 463.981 376.8 460.423 376.8C459.331 376.8 458.477 376.8 456.058 375.654L451.077 372.904C450.477 372.574 449.976 372.09 449.625 371.501C449.275 370.913 449.088 370.241 449.083 369.556V348.419C449.083 347.044 449.842 345.76 451.077 345.073L470.008 334.479C470.625 334.163 471.307 333.998 472 333.998C472.693 333.998 473.375 334.163 473.992 334.479L492.925 345.071C494.158 345.758 494.917 347.042 494.917 348.417V369.554C494.917 370.929 494.158 372.213 492.925 372.902L473.992 383.492C473.363 383.764 472.685 383.905 472 383.904V383.908ZM477.835 369.373C469.533 369.373 467.825 365.706 467.825 362.588C467.825 362.312 468.062 362.038 468.394 362.038H470.86C471.146 362.038 471.381 362.221 471.381 362.496C471.762 364.925 472.854 366.117 477.883 366.117C481.869 366.117 483.577 365.246 483.577 363.183C483.577 361.992 483.102 361.121 476.887 360.525C471.715 360.019 468.49 358.921 468.49 354.931C468.49 351.217 471.715 349.015 477.125 349.015C483.198 349.015 486.187 351.033 486.567 355.435C486.562 355.584 486.512 355.729 486.423 355.848C486.329 355.94 486.187 356.031 486.044 356.031H483.577C483.457 356.028 483.342 355.987 483.248 355.912C483.154 355.838 483.087 355.735 483.056 355.619C482.485 353.098 481.015 352.271 477.125 352.271C472.758 352.271 472.237 353.738 472.237 354.837C472.237 356.169 472.854 356.581 478.737 357.315C484.573 358.048 487.325 359.102 487.325 363.044C487.277 367.081 483.862 369.373 477.835 369.373Z" fill="white"/>
<path d="M467.229 141.812C463.062 141.812 461.5 146.5 457.333 148.583C453.167 148.583 450.042 142.333 458.375 124.625H458.896L459.812 122.896C459.812 122.896 465.667 119.417 468.437 121.979H479.562C482.333 119.417 488.187 122.896 488.187 122.896L489.104 124.625H489.625C497.958 142.333 494.833 148.583 490.667 148.583C486.5 146.5 484.937 141.812 480.771 141.812H467.229ZM474 123.583C473.447 123.583 472.918 123.803 472.527 124.194C472.136 124.584 471.917 125.114 471.917 125.667C471.917 126.219 472.136 126.749 472.527 127.14C472.918 127.531 473.447 127.75 474 127.75C474.553 127.75 475.082 127.531 475.473 127.14C475.864 126.749 476.083 126.219 476.083 125.667C476.083 125.114 475.864 124.584 475.473 124.194C475.082 123.803 474.553 123.583 474 123.583Z" fill="white"/>
<path fill-rule="evenodd" clip-rule="evenodd" d="M357.028 257.291C358.596 262.417 361.769 266.905 366.079 270.093C370.388 273.281 375.608 275.001 380.969 275C394.794 275 406 263.806 406 250C406 236.194 394.794 225 380.972 225C374.626 224.998 368.516 227.407 363.88 231.74C359.243 236.073 356.426 242.006 356 248.338L356.009 248.356L369.459 253.884C370.672 253.081 372.109 252.684 373.562 252.75L379.688 243.863L379.684 243.738C379.687 241.217 380.689 238.8 382.471 237.017C384.253 235.234 386.67 234.231 389.191 234.228C391.711 234.231 394.128 235.234 395.91 237.017C397.692 238.8 398.694 241.217 398.697 243.738C398.696 245.004 398.442 246.258 397.951 247.425C397.459 248.593 396.74 249.65 395.834 250.536C394.929 251.422 393.856 252.118 392.678 252.584C391.5 253.05 390.241 253.277 388.975 253.25L380.212 259.5C380.242 260.658 379.982 261.804 379.456 262.836C378.929 263.868 378.153 264.751 377.198 265.406C376.243 266.062 375.14 266.468 373.988 266.588C372.836 266.708 371.673 266.538 370.603 266.094C369.577 265.666 368.668 264.997 367.955 264.145C367.241 263.292 366.743 262.28 366.503 261.194L357.031 257.291H357.028ZM371.212 264.634C372.514 265.131 373.959 265.102 375.239 264.552C376.52 264.001 377.536 262.974 378.071 261.688C378.607 260.401 378.621 258.957 378.109 257.66C377.597 256.364 376.601 255.318 375.331 254.744C374.072 254.218 372.659 254.196 371.384 254.681L374.581 256.006C375.059 256.205 375.494 256.497 375.859 256.863C376.225 257.23 376.514 257.665 376.712 258.144C376.909 258.623 377.01 259.136 377.009 259.654C377.008 260.172 376.905 260.684 376.706 261.163C376.507 261.641 376.216 262.075 375.849 262.44C375.482 262.806 375.047 263.096 374.568 263.293C374.089 263.49 373.576 263.591 373.059 263.59C372.541 263.589 372.028 263.487 371.55 263.288L368.456 262.006C369.019 263.192 370.001 264.127 371.212 264.631V264.634ZM382.856 243.738C382.857 245.418 383.525 247.029 384.712 248.218C385.9 249.407 387.51 250.076 389.191 250.078C390.871 250.076 392.482 249.407 393.669 248.218C394.857 247.029 395.524 245.418 395.525 243.738C395.523 242.058 394.854 240.449 393.667 239.261C392.48 238.074 390.87 237.406 389.191 237.403C387.511 237.406 385.902 238.074 384.714 239.261C383.527 240.449 382.859 242.058 382.856 243.738ZM389.2 238.966C388.575 238.966 387.956 239.09 387.378 239.33C386.801 239.57 386.277 239.921 385.835 240.363C384.943 241.257 384.443 242.469 384.444 243.731C384.445 244.994 384.948 246.204 385.842 247.096C386.735 247.988 387.947 248.489 389.209 248.488C390.472 248.486 391.683 247.983 392.574 247.09C393.466 246.196 393.967 244.985 393.966 243.722C393.964 242.459 393.462 241.249 392.568 240.357C391.674 239.465 390.463 238.964 389.2 238.966Z" fill="white"/>
<path d="M622.648 385.403H627.409V390.712C627.226 390.712 626.889 390.693 626.396 390.657C625.904 390.621 625.439 390.602 625.001 390.602H622.648V400.781C622.648 403.226 623.45 404.448 625.055 404.448C626.187 404.448 627.208 404.138 628.12 403.517V408.99C626.77 409.72 625.147 410.085 623.249 410.085C620.586 410.085 618.744 409.136 617.722 407.239C616.956 405.816 616.573 403.573 616.573 400.507V390.712H616.628V390.602L615.807 390.548C615.332 390.548 614.712 390.602 613.946 390.712V385.403H616.628V383.269C616.628 382.247 616.573 381.427 616.464 380.806H622.812C622.702 381.5 622.648 382.284 622.648 383.159V385.403ZM605.14 409.701C605.213 408.972 605.249 407.732 605.249 405.98V388.96C605.249 387.246 605.213 386.06 605.14 385.403H611.324C611.251 386.097 611.214 387.246 611.214 388.851V405.652C611.214 407.513 611.251 408.862 611.324 409.701H605.14ZM591.401 385.131C588.92 385.131 586.787 385.952 584.999 387.594C583.138 389.345 582.206 391.534 582.206 394.161C582.206 395.912 582.72 397.551 583.741 399.083C584.653 400.506 585.693 401.42 586.86 401.821V401.931C585.693 402.441 585.109 403.718 585.109 405.761C585.109 407.33 585.727 408.498 586.967 409.264V409.374C583.574 410.505 581.88 412.602 581.88 415.667C581.88 418.33 583.011 420.283 585.273 421.523C587.061 422.508 589.34 423 592.112 423C598.862 423 602.238 420.171 602.238 414.516C602.238 410.977 599.628 408.806 594.41 408.004C593.206 407.821 592.296 407.385 591.676 406.691C591.202 406.217 590.965 405.744 590.965 405.269C590.965 403.919 591.694 403.135 593.153 402.916C595.379 402.588 597.193 401.555 598.597 399.822C600.002 398.089 600.706 396.056 600.706 393.721C600.706 392.992 600.558 392.208 600.267 391.368C601.215 391.149 601.944 390.95 602.455 390.767V385.131C600.156 386.006 598.133 386.443 596.382 386.443C594.849 385.567 593.189 385.131 591.401 385.131ZM591.621 390.163C592.716 390.163 593.573 390.584 594.194 391.423C594.704 392.19 594.96 393.103 594.96 394.161C594.96 396.715 593.847 397.991 591.621 397.991C589.323 397.991 588.172 396.73 588.172 394.213C588.173 391.513 589.323 390.163 591.621 390.163ZM592.002 412.438C595.067 412.438 596.602 413.369 596.602 415.23C596.602 417.201 595.196 418.184 592.387 418.184C589.177 418.184 587.571 417.234 587.571 415.337C587.571 413.403 589.047 412.438 592.002 412.438ZM612.05 377.077C612.05 379.329 610.347 381.154 608.246 381.154C606.146 381.154 604.443 379.329 604.443 377.077C604.443 374.825 606.146 373 608.246 373C610.347 373 612.05 374.825 612.05 377.077Z" fill="white"/>
<path fill-rule="evenodd" clip-rule="evenodd" d="M1028 330C1014.19 330 1003 341.187 1003 355C1003 366.062 1010.16 375.406 1020.09 378.719C1021.34 378.938 1021.81 378.188 1021.81 377.531C1021.81 376.938 1021.78 374.969 1021.78 372.875C1015.5 374.031 1013.88 371.344 1013.38 369.938C1013.09 369.219 1011.88 367 1010.81 366.406C1009.94 365.938 1008.69 364.781 1010.78 364.75C1012.75 364.719 1014.16 366.562 1014.62 367.312C1016.87 371.094 1020.47 370.031 1021.91 369.375C1022.12 367.75 1022.78 366.656 1023.5 366.031C1017.94 365.406 1012.12 363.25 1012.12 353.687C1012.12 350.969 1013.09 348.719 1014.69 346.969C1014.44 346.344 1013.56 343.781 1014.94 340.344C1014.94 340.344 1017.03 339.688 1021.81 342.906C1023.81 342.344 1025.94 342.062 1028.06 342.062C1030.19 342.062 1032.31 342.344 1034.31 342.906C1039.09 339.656 1041.19 340.344 1041.19 340.344C1042.56 343.781 1041.69 346.344 1041.44 346.969C1043.03 348.719 1044 350.937 1044 353.687C1044 363.281 1038.16 365.406 1032.59 366.031C1033.5 366.812 1034.28 368.312 1034.28 370.656C1034.28 374 1034.25 376.688 1034.25 377.531C1034.25 378.188 1034.72 378.969 1035.97 378.719C1040.93 377.043 1045.24 373.854 1048.3 369.599C1051.35 365.344 1053 360.238 1053 355C1053 341.187 1041.81 330 1028 330Z" fill="white"/>
<path d="M1052.26 131.285C1050.52 132.056 1048.65 132.577 1046.68 132.813C1048.71 131.6 1050.23 129.691 1050.95 127.442C1049.05 128.573 1046.96 129.369 1044.79 129.796C1043.33 128.235 1041.39 127.201 1039.28 126.853C1037.17 126.505 1035 126.864 1033.12 127.873C1031.23 128.883 1029.73 130.486 1028.85 132.435C1027.97 134.383 1027.76 136.568 1028.25 138.65C1024.39 138.456 1020.62 137.453 1017.17 135.706C1013.72 133.959 1010.68 131.507 1008.25 128.508C1007.41 129.946 1006.93 131.613 1006.93 133.388C1006.93 134.985 1007.33 136.559 1008.08 137.968C1008.83 139.378 1009.92 140.579 1011.25 141.467C1009.71 141.418 1008.2 141.001 1006.85 140.252V140.377C1006.85 142.618 1007.63 144.79 1009.05 146.525C1010.47 148.26 1012.44 149.45 1014.64 149.894C1013.21 150.281 1011.71 150.338 1010.26 150.06C1010.88 151.989 1012.08 153.675 1013.71 154.883C1015.33 156.091 1017.3 156.761 1019.32 156.798C1015.89 159.497 1011.64 160.961 1007.27 160.954C1006.49 160.954 1005.72 160.909 1004.95 160.819C1009.39 163.671 1014.55 165.185 1019.83 165.179C1037.68 165.179 1047.44 150.392 1047.44 137.567C1047.44 137.15 1047.43 136.729 1047.41 136.313C1049.31 134.94 1050.95 133.239 1052.25 131.292L1052.26 131.285Z" fill="white"/>
<path d="M773.227 395.387L762.941 390.439C762.359 390.157 761.704 390.064 761.066 390.172C760.429 390.279 759.841 390.583 759.384 391.041L739.683 409.017L731.097 402.506C730.71 402.211 730.232 402.06 729.746 402.081C729.259 402.102 728.796 402.293 728.436 402.62L725.686 405.127C725.471 405.321 725.299 405.558 725.181 405.822C725.063 406.087 725.002 406.373 725.001 406.663C725 406.953 725.06 407.239 725.177 407.505C725.293 407.77 725.464 408.008 725.678 408.203L733.125 414.998L725.678 421.794C725.464 421.989 725.293 422.227 725.177 422.492C725.06 422.757 725 423.044 725.001 423.334C725.002 423.623 725.063 423.91 725.181 424.174C725.299 424.439 725.471 424.676 725.686 424.87L728.436 427.377C728.796 427.704 729.259 427.895 729.746 427.916C730.232 427.937 730.71 427.786 731.097 427.491L739.683 420.972L759.394 438.956C759.849 439.414 760.435 439.718 761.072 439.825C761.708 439.933 762.362 439.84 762.942 439.558L773.238 434.602C773.768 434.347 774.215 433.947 774.527 433.449C774.84 432.951 775.005 432.374 775.003 431.786V398.2C775.003 397.003 774.311 395.905 773.23 395.384L773.227 395.387ZM762.508 426.353L747.55 415L762.508 403.647V426.353Z" fill="white"/>
<path d="M766.669 66.4708C766.669 66.3479 766.669 66.0813 766.8 66.0813C766.988 66.0813 767.148 66.4771 767.208 66.6438C768.221 69.8688 767.938 73.8292 766.49 78.2854C772.231 81.3542 775.527 85.3313 774.931 89.0521C774.14 93.9417 766.965 96.8167 757.302 96.4792C758.434 95.26 759.511 93.9914 760.531 92.6771C764.252 91.9542 766.919 90.4833 767.615 88.1271C768.127 86.4125 766.948 84.5104 764.706 82.7229C761.023 90.4792 754.869 97.4271 749.183 101.442C751.94 104.956 754.508 107.396 757.442 108.767C757.55 108.819 757.783 108.954 757.704 109.075C757.613 109.238 757.179 109.179 757.017 109.146C753.715 108.413 750.438 106.188 747.281 102.702C741.756 106.14 736.658 107.006 733.735 104.629C729.898 101.504 730.994 93.8417 736.104 85.6583C736.506 86.9729 737.156 88.8375 737.783 90.3521C736.546 93.9375 736.488 96.9833 738.179 98.7708C739.408 100.069 741.646 100 744.315 98.9542C739.471 91.8813 736.527 83.0792 735.898 76.1333C731.473 76.7646 728.077 77.7688 725.425 79.6229C725.325 79.6917 725.092 79.8271 725.019 79.7063C724.927 79.5438 725.19 79.2063 725.304 79.0729C727.592 76.5813 731.163 74.8479 735.746 73.8729C735.533 67.3646 737.325 62.5188 740.85 61.1792C745.475 59.4167 751.558 64.1958 756.092 72.725C754.471 72.3537 752.835 72.0555 751.188 71.8313C748.702 68.9729 746.092 67.3938 743.7 67.9688C741.963 68.3854 740.906 70.3563 740.477 73.1813C749.035 72.4896 758.129 74.3479 764.456 77.2729C766.123 73.1396 766.95 69.6958 766.669 66.4708ZM746.673 97.8396C753.448 93.9667 758.942 88.0563 762.585 81.2458C755.835 77.3292 747.975 75.5167 740.26 75.7729C740.244 83.575 742.602 91.2958 746.681 97.8438L746.673 97.8396Z" fill="white"/>
<path d="M602.506 122.896C598.545 122.488 594.739 121.138 591.406 118.959C588.6 117.131 587.966 116.378 587.966 114.878C587.966 111.862 591.285 106.578 596.963 100.556C600.185 97.1339 604.678 93.1245 605.163 93.2339C606.106 93.4464 613.656 100.806 616.481 104.268C620.95 109.746 623.006 114.234 621.963 116.234C621.169 117.753 616.244 120.724 612.628 121.865C609.647 122.806 605.731 123.206 602.506 122.896ZM584.175 111.74C581.841 108.165 580.663 104.646 580.094 99.5526C579.906 97.8682 579.975 96.9089 580.522 93.4589C581.203 89.1557 583.653 84.1776 586.6 81.1151C587.853 79.812 587.966 79.7807 589.494 80.2932C591.353 80.9182 593.338 82.287 596.41 85.0682L598.203 86.6901L597.225 87.8932C592.675 93.4776 587.875 101.393 586.063 106.29C585.078 108.953 584.681 111.624 585.106 112.737C585.391 113.487 585.128 113.206 584.169 111.74H584.175ZM625.116 112.349C625.347 111.224 625.056 109.162 624.372 107.078C622.894 102.568 617.95 94.1776 613.41 88.4745L611.981 86.6776L613.525 85.2589C615.544 83.4057 616.947 82.2964 618.463 81.3526C619.653 80.612 621.36 79.9526 622.091 79.9526C622.544 79.9526 624.135 81.6026 625.419 83.4026C627.462 86.3149 628.89 89.6134 629.616 93.0964C630.094 95.3714 630.135 100.24 629.691 102.509C629.274 104.541 628.646 106.524 627.816 108.424C627.256 109.653 625.866 112.037 625.253 112.812C624.941 113.212 624.941 113.209 625.119 112.349H625.116ZM602.922 79.0995C600.828 78.037 597.597 76.8964 595.81 76.5901C595.025 76.4732 594.231 76.4282 593.438 76.4557C591.966 76.5307 592.031 76.4557 594.394 75.337C596.246 74.4476 598.203 73.7966 600.219 73.3995C602.719 72.8714 607.425 72.8682 609.888 73.3839C612.544 73.9464 615.678 75.1089 617.444 76.1964L617.969 76.5182L616.766 76.4557C614.372 76.337 610.891 77.2995 607.147 79.1214C606.019 79.6714 605.035 80.1089 604.963 80.0964C604.272 79.7844 603.59 79.452 602.919 79.0995H602.922Z" fill="white"/>
<path d="M1135.33 234.358C1132.14 232.921 1128.72 231.858 1125.15 231.254C1125.12 231.248 1125.09 231.252 1125.06 231.265C1125.03 231.279 1125 231.301 1124.99 231.329C1124.55 232.098 1124.06 233.1 1123.72 233.892C1119.93 233.325 1116.08 233.325 1112.29 233.892C1111.91 233.014 1111.48 232.159 1111 231.329C1110.99 231.301 1110.96 231.278 1110.93 231.264C1110.9 231.25 1110.87 231.245 1110.84 231.25C1107.27 231.854 1103.85 232.917 1100.66 234.356C1100.63 234.368 1100.61 234.387 1100.59 234.413C1094.11 243.944 1092.33 253.24 1093.21 262.419C1093.21 262.441 1093.22 262.463 1093.23 262.483C1093.24 262.502 1093.25 262.52 1093.27 262.533C1097.05 265.288 1101.28 267.387 1105.76 268.742C1105.79 268.751 1105.82 268.751 1105.85 268.742C1105.88 268.732 1105.91 268.713 1105.93 268.688C1106.89 267.396 1107.75 266.031 1108.49 264.598C1108.53 264.515 1108.49 264.415 1108.4 264.381C1107.05 263.874 1105.75 263.263 1104.5 262.552C1104.48 262.539 1104.46 262.521 1104.44 262.499C1104.43 262.477 1104.42 262.452 1104.42 262.426C1104.42 262.401 1104.42 262.375 1104.44 262.351C1104.45 262.328 1104.46 262.307 1104.48 262.292C1104.75 262.098 1105.01 261.896 1105.26 261.694C1105.28 261.676 1105.31 261.664 1105.34 261.66C1105.37 261.657 1105.39 261.661 1105.42 261.673C1113.6 265.348 1122.46 265.348 1130.55 261.673C1130.57 261.66 1130.6 261.655 1130.63 261.659C1130.66 261.662 1130.69 261.673 1130.71 261.692C1130.96 261.896 1131.22 262.098 1131.49 262.292C1131.51 262.307 1131.53 262.327 1131.54 262.35C1131.55 262.374 1131.55 262.399 1131.55 262.425C1131.55 262.451 1131.54 262.476 1131.53 262.498C1131.52 262.52 1131.5 262.539 1131.47 262.552C1130.23 263.269 1128.93 263.875 1127.57 264.379C1127.55 264.387 1127.53 264.399 1127.52 264.414C1127.5 264.43 1127.49 264.449 1127.48 264.469C1127.47 264.49 1127.47 264.512 1127.47 264.534C1127.47 264.556 1127.48 264.578 1127.49 264.598C1128.24 266.029 1129.1 267.392 1130.04 268.685C1130.06 268.712 1130.09 268.732 1130.12 268.742C1130.15 268.753 1130.18 268.753 1130.21 268.744C1134.7 267.393 1138.93 265.293 1142.72 262.533C1142.74 262.52 1142.75 262.504 1142.76 262.484C1142.78 262.465 1142.78 262.443 1142.79 262.421C1143.83 251.808 1141.04 242.588 1135.39 234.417C1135.38 234.39 1135.35 234.369 1135.33 234.358ZM1109.71 256.829C1107.25 256.829 1105.21 254.602 1105.21 251.871C1105.21 249.138 1107.21 246.913 1109.71 246.913C1112.23 246.913 1114.24 249.156 1114.2 251.871C1114.2 254.604 1112.21 256.829 1109.71 256.829ZM1126.32 256.829C1123.86 256.829 1121.83 254.602 1121.83 251.871C1121.83 249.138 1123.82 246.913 1126.32 246.913C1128.84 246.913 1130.86 249.156 1130.82 251.871C1130.82 254.604 1128.85 256.829 1126.32 256.829Z" fill="white"/>
<path d="M895 394.065L889.581 384.68H881.824L895 407.501L908.176 384.68H900.419L895 394.065Z" fill="white"/>
<path d="M909.98 384.68L895 410.626L880.02 384.68H871.537L895 425.32L918.463 384.68H909.98Z" fill="white"/>
<path d="M882.5 83.987C884.166 77.3034 888.334 73.9609 895 73.9609C905 73.9609 906.25 81.4805 911.25 82.7337C914.584 83.5696 917.5 82.3164 920 78.9739C918.334 85.6575 914.166 89 907.5 89C897.5 89 896.25 81.4805 891.25 80.2272C887.916 79.3913 885 80.6445 882.5 83.987ZM870 99.0261C871.666 92.3425 875.834 89 882.5 89C892.5 89 893.75 96.5195 898.75 97.7728C902.084 98.6087 905 97.3555 907.5 94.013C905.834 100.697 901.666 104.039 895 104.039C885 104.039 883.75 96.5195 878.75 95.2663C875.416 94.4304 872.5 95.6836 870 99.0261Z" fill="white"/>
</g>
<defs>
<clipPath id="clip0_576_3">
<rect width="1500" height="500" fill="white"/>
</clipPath>
</defs>
</svg>
