<svg width="400" height="201" viewBox="0 0 400 201" fill="none" xmlns="http://www.w3.org/2000/svg">
<rect width="400" height="200.326" fill="white"/>
<path d="M21.7505 139.053C21.7325 139.053 15.0184 133.437 26.9706 114.969C26.9706 114.969 16.9985 77.8701 26.9706 46.0095C26.9706 46.0095 62.6472 -9.64738 111.068 46.0095C111.068 46.0095 122.318 82.5321 111.86 114.969C111.86 114.969 121.904 126.039 116.216 139.899C115.964 140.511 115.622 140.907 115.622 140.907C115.622 140.907 80.3235 174.442 75.5534 178.024C75.5534 178.024 74.8874 180.472 64.9152 177.826C64.9152 177.826 26.8986 145.137 23.6046 140.835" fill="#1F1F1F"/>
<path fill-rule="evenodd" clip-rule="evenodd" d="M54.5832 145.623L38.077 121.233C38.077 121.233 35.5029 82.6402 68.7854 65.1079C68.7854 65.1079 96.0739 80.9661 97.6759 120.747L83.0237 146.001C83.0237 146.001 72.4755 156.495 55.7532 146.253" fill="url(#paint0_linear)"/>
<path d="M110.888 45.9736C111.23 47.4316 112.058 49.1956 112.346 50.6356C112.598 52.0757 113.03 53.2097 113.246 54.6497C113.696 57.5297 114.416 60.3018 114.794 63.1998C115.514 68.9779 116.198 74.774 116.468 80.5881C116.612 83.4862 116.306 86.3662 116.27 89.2823C116.252 92.1983 115.946 95.1144 115.694 98.0124C115.442 100.91 115.01 103.736 114.416 106.581C114.11 108.003 113.768 109.515 113.318 110.901C112.886 112.287 112.58 113.673 111.95 115.005L111.914 114.753C112.094 114.987 112.256 115.203 112.418 115.437C112.58 115.671 112.742 115.887 112.886 116.121C113.192 116.589 113.48 117.057 113.768 117.543C114.344 118.497 114.866 119.487 115.334 120.495C116.288 122.511 117.044 124.617 117.53 126.813C118.016 128.991 118.214 131.241 118.052 133.491C117.962 134.607 117.782 135.723 117.494 136.803C117.224 137.883 116.828 138.963 116.36 139.971L116.324 140.025L116.288 140.061C109.7 146.451 103.112 152.841 96.4876 159.195C93.1755 162.381 89.8635 165.549 86.5514 168.718C84.8954 170.302 83.2214 171.886 81.5473 173.452C80.7193 174.244 79.8733 175.018 79.0273 175.792C78.5953 176.188 78.1813 176.566 77.7493 176.962C77.5333 177.16 77.3173 177.34 77.1013 177.538C76.8852 177.736 76.6692 177.916 76.4172 178.114L76.3812 178.132L76.3632 178.15L76.2732 178.204L76.1832 178.24C76.1292 178.276 76.0572 178.294 76.0032 178.33C75.8772 178.384 75.7692 178.438 75.6432 178.474C75.4092 178.582 75.1752 178.672 74.9232 178.744C74.4372 178.906 73.9512 179.05 73.4652 179.158C72.4752 179.374 71.4672 179.5 70.4411 179.5C69.4331 179.5 68.4071 179.392 67.4171 179.176C66.4271 178.96 65.4551 178.618 64.537 178.186L64.501 178.168L64.465 178.132C63.079 177.052 61.711 175.954 60.343 174.856C58.975 173.758 57.6069 172.642 56.2569 171.508C53.5569 169.258 50.8748 166.99 48.2288 164.685C42.9187 160.077 37.7166 155.361 32.6045 150.537C30.0485 148.125 27.5284 145.677 25.0264 143.211C23.7844 141.969 22.5244 140.727 21.3003 139.485L21.1743 139.359C21.1203 139.305 21.1563 139.341 21.1383 139.323L21.1203 139.287L21.0843 139.251L21.0303 139.179C20.9583 139.089 20.8863 138.981 20.8323 138.891C20.7063 138.693 20.5803 138.495 20.4723 138.279C20.2563 137.865 20.0583 137.433 19.9143 137.001C19.5903 136.137 19.3923 135.237 19.2663 134.337C19.0323 132.519 19.1403 130.683 19.4643 128.919C19.7883 127.137 20.3463 125.427 21.0123 123.771C21.6963 122.115 22.5064 120.531 23.3884 118.983C24.2884 117.435 25.2604 115.959 26.3044 114.519L26.2144 115.077L26.1244 114.807L26.0344 114.537L25.8724 114.015C25.7644 113.655 25.6744 113.313 25.5664 112.953C25.3684 112.251 25.1884 111.531 25.0264 110.829C24.6844 109.407 24.3784 107.985 24.1084 106.545C23.5504 103.682 23.1184 100.784 22.7764 97.8864C22.4344 94.9883 22.2003 92.0723 22.0563 89.1563C21.9123 86.2402 21.8583 83.3242 21.8763 80.4081C21.9123 77.4921 22.0203 74.576 22.2183 71.66C22.4164 68.7619 22.7044 65.8459 23.0644 62.9478C23.8024 57.1697 24.8284 51.4096 26.1604 45.7396L26.1964 45.6136L26.2504 45.5236C26.3224 45.3975 26.4124 45.2895 26.4844 45.1815L26.7184 44.8575C26.8804 44.6415 27.0244 44.4255 27.1864 44.2095C27.5104 43.7775 27.8164 43.3635 28.1584 42.9315C28.8065 42.0855 29.4725 41.2755 30.1745 40.4655C31.5605 38.8454 33.0005 37.3154 34.5305 35.8214C37.5726 32.8513 40.8847 30.1693 44.4667 27.8653C46.2487 26.7132 48.1208 25.6872 50.0468 24.7692C51.9728 23.8512 53.9529 23.0772 55.9869 22.4472C58.0209 21.8172 60.109 21.3492 62.215 21.0432C64.321 20.7372 66.4631 20.6112 68.5871 20.6832C72.8352 20.8092 77.0653 21.6372 81.0613 23.0592C85.0574 24.4812 88.8374 26.4612 92.3655 28.7833C94.1295 29.9533 95.8396 31.1953 97.4956 32.5093C99.1516 33.8234 100.736 35.2094 102.284 36.6494C105.362 39.5295 108.242 42.6075 110.96 45.8296L110.888 45.9736C109.502 44.4075 108.062 42.8595 106.604 41.3475C105.128 39.8535 103.616 38.3774 102.068 36.9734C98.9356 34.1654 95.6416 31.5733 92.0955 29.3053C88.5674 27.0553 84.8054 25.1472 80.8453 23.8152C78.8653 23.1492 76.8493 22.6092 74.7972 22.2312C72.7452 21.8532 70.6751 21.6552 68.5871 21.6192C66.5171 21.5832 64.429 21.7272 62.377 22.0512C60.325 22.3572 58.2909 22.8432 56.3109 23.4732C54.3309 24.1032 52.4048 24.8772 50.5328 25.7952C48.6608 26.7132 46.8428 27.7393 45.0967 28.8733C41.6047 31.1413 38.3826 33.8054 35.4126 36.7394C33.9365 38.1974 32.5145 39.7275 31.1645 41.3295C30.4805 42.1215 29.8325 42.9315 29.2025 43.7595C28.8785 44.1735 28.5725 44.5875 28.2664 45.0015C28.1044 45.2175 27.9604 45.4335 27.8164 45.6316L27.6004 45.9556C27.5284 46.0636 27.4564 46.1716 27.4024 46.2616L27.4924 46.0636C26.1964 51.6977 25.1704 57.4037 24.4864 63.1458C24.1264 66.0079 23.8564 68.8879 23.6584 71.768C23.4604 74.648 23.3524 77.5461 23.3164 80.4261C23.2804 83.3242 23.3344 86.2042 23.4604 89.0843C23.6044 91.9823 23.8204 94.8443 24.1444 97.7244C24.4684 100.586 24.8824 103.448 25.4224 106.293C25.6924 107.715 25.9804 109.119 26.3224 110.523C26.4844 111.225 26.6644 111.909 26.8444 112.611C26.9344 112.953 27.0424 113.295 27.1324 113.655L27.2764 114.177L27.3484 114.429L27.4204 114.681L27.5284 114.987L27.3484 115.239C26.3224 116.643 25.3684 118.083 24.4864 119.577C23.6044 121.071 22.8124 122.619 22.1463 124.203C21.4803 125.787 20.9583 127.425 20.6343 129.117C20.3103 130.791 20.2023 132.501 20.4183 134.175C20.5263 135.003 20.7063 135.831 20.9943 136.605C21.1383 137.001 21.3003 137.379 21.4983 137.739C21.5883 137.919 21.6963 138.099 21.8043 138.261C21.8583 138.351 21.9123 138.423 21.9663 138.495L22.0023 138.549L22.0203 138.567V138.585C22.0203 138.567 22.0563 138.621 22.0023 138.567L22.1103 138.693C23.3344 139.953 24.5764 141.195 25.8184 142.419C28.3024 144.903 30.8045 147.333 33.3425 149.763C38.4186 154.605 43.6027 159.321 48.8768 163.929C51.5228 166.233 54.1869 168.52 56.8689 170.77C58.2189 171.886 59.569 173.002 60.919 174.118C62.269 175.216 63.655 176.314 65.0231 177.394L64.9511 177.34C65.8151 177.754 66.7151 178.078 67.6331 178.294C68.5511 178.51 69.5051 178.618 70.4591 178.618C71.4132 178.618 72.3672 178.51 73.2852 178.312C73.7532 178.204 74.2032 178.078 74.6712 177.934C74.8872 177.862 75.1212 177.772 75.3372 177.682C75.4452 177.646 75.5532 177.592 75.6612 177.538L75.8232 177.466L75.8952 177.43L75.9672 177.394L75.9132 177.43C76.1112 177.268 76.3452 177.088 76.5612 176.908C76.7772 176.728 76.9932 176.53 77.2092 176.35C77.6413 175.972 78.0553 175.594 78.4873 175.198C79.3333 174.424 80.1793 173.65 81.0073 172.858C82.6813 171.292 84.3554 169.726 86.0294 168.142C89.3595 164.991 92.6895 161.823 96.0016 158.655L105.956 149.133L115.874 139.593L115.802 139.683C116.27 138.693 116.63 137.667 116.918 136.623C117.188 135.561 117.386 134.499 117.476 133.401C117.656 131.223 117.458 129.027 117.008 126.903C116.54 124.761 115.802 122.673 114.884 120.693C114.416 119.703 113.912 118.731 113.354 117.777C113.084 117.309 112.796 116.841 112.49 116.373C112.346 116.139 112.184 115.923 112.022 115.689C111.86 115.455 111.698 115.239 111.536 115.023L111.446 114.897L111.518 114.771C112.13 113.457 112.436 112.107 112.886 110.739C113.318 109.371 113.678 107.877 113.984 106.473C114.596 103.646 115.028 100.838 115.298 97.9584C115.568 95.0603 115.874 92.1623 115.928 89.2643C115.964 86.3662 116.288 83.5042 116.162 80.6061C116.036 77.7081 115.802 74.756 115.55 71.858C115.298 68.9599 114.92 66.1159 114.578 63.2358C114.236 60.3558 113.534 57.5657 113.102 54.6857C112.886 53.2457 112.472 52.0937 112.22 50.6716C111.788 49.2316 111.446 47.3056 111.014 45.8836L110.888 45.9736Z" fill="#464646"/>
<path d="M54.5293 145.227L56.2033 146.073C56.2033 146.073 61.2614 149.115 66.0675 150.015C70.6215 150.861 75.3916 149.601 75.3916 149.601C80.1617 148.233 82.7537 145.803 82.7537 145.803L83.3297 146.307C83.3297 146.307 72.5656 156.729 55.8433 146.469L54.1513 145.461L53.0173 144.003C50.4612 140.295 47.9232 136.569 45.4031 132.843C42.8831 129.117 40.3631 125.373 37.861 121.629L37.789 121.503V121.359C37.681 115.671 38.113 109.983 39.211 104.385C39.7511 101.594 40.4891 98.8225 41.3891 96.1224C41.8571 94.7724 42.3611 93.4404 42.9191 92.1083C43.4771 90.7943 44.0891 89.4983 44.7551 88.2383C47.4012 83.1622 50.8212 78.5001 54.9073 74.522C55.9333 73.532 56.9953 72.578 58.0933 71.66C59.1914 70.742 60.3254 69.896 61.4954 69.086C62.6654 68.2759 63.8714 67.5199 65.1135 66.8179C66.3555 66.1339 67.6155 65.4859 68.9475 64.9639L69.0015 65.0899C68.3715 65.3959 67.7415 65.7379 67.1295 66.0799C66.5175 66.4399 65.9055 66.7999 65.3294 67.1779C64.1414 67.9339 62.9894 68.7439 61.8734 69.608C60.7574 70.454 59.6774 71.354 58.6333 72.29C57.5893 73.226 56.5813 74.198 55.6093 75.2061C53.6653 77.2221 51.9012 79.4001 50.2812 81.6862C48.6612 83.9722 47.2212 86.3662 45.9612 88.8503C45.3311 90.0923 44.7371 91.3523 44.1791 92.6483C43.6391 93.9444 43.1171 95.2404 42.6671 96.5544C41.7491 99.2005 40.9751 101.901 40.3991 104.637C39.8051 107.373 39.391 110.145 39.121 112.935C38.851 115.725 38.743 118.533 38.761 121.341L38.671 121.071C41.1371 124.851 43.6031 128.613 46.0872 132.375C48.5532 136.137 51.0552 139.881 53.5393 143.643" fill="#464646"/>
<path d="M84.2475 143.625C85.9035 139.629 88.5316 136.101 90.6916 132.339C92.8517 128.577 95.0297 124.833 97.1717 121.089L97.0997 121.413C96.7577 116.013 96.0737 110.649 94.9397 105.357C93.8057 100.064 92.2757 94.8804 90.1156 89.9123C89.0356 87.4462 87.8116 85.0342 86.4256 82.7122C85.0215 80.3901 83.4555 78.1941 81.7095 76.1421C79.9634 74.09 78.0194 72.182 75.8954 70.526C74.8334 69.698 73.9153 68.7799 72.7453 68.0779C72.1693 67.7179 71.6473 67.2139 71.0713 66.7819C70.7833 66.5839 70.4053 66.3499 70.0633 66.0259C69.8113 65.8279 69.2533 65.3419 68.9473 65.2339L68.9833 65.1079C69.3073 65.2159 69.8113 65.7559 70.1173 65.8999C70.4053 66.1339 70.8373 66.4939 71.1433 66.6379C71.7013 67.0519 72.2593 67.5739 72.8533 67.8979C74.0234 68.5819 74.9774 69.482 76.0754 70.31C78.2534 71.948 80.2335 73.838 82.0335 75.8901C83.8335 77.9241 85.4715 80.1381 86.9116 82.4422C88.3696 84.7462 89.6476 87.1762 90.7636 89.6603C91.8977 92.1443 92.8697 94.7004 93.7157 97.2924C94.5617 99.8845 95.2637 102.53 95.8757 105.195C97.0817 110.523 97.8197 115.923 98.2697 121.359L98.2878 121.521L98.1978 121.683C96.1097 125.481 94.0217 129.279 91.8796 133.059C89.7556 136.839 87.5596 140.583 85.3455 144.309L84.2475 143.625ZM83.3295 146.325C83.7795 145.893 85.3455 144.273 85.3455 144.273L84.2475 143.625L83.0235 145.551L82.7535 145.803" fill="#464646"/>
<path d="M91.6636 91.6763C94.0577 96.4104 91.5016 102.908 85.8856 106.311C79.5135 110.235 73.4474 108.759 70.8193 104.078L78.1274 99.7224C78.9555 101.162 80.7555 101.612 82.6635 100.37C84.2835 99.3264 85.0755 97.4184 84.5175 95.9244L91.6636 91.6763Z" fill="url(#paint1_linear)"/>
<path d="M44.0529 91.6763C41.6589 96.4104 44.2149 102.908 49.831 106.311C56.2031 110.235 62.2692 108.759 64.8972 104.078L57.5891 99.7224C56.7611 101.162 54.9611 101.612 53.0531 100.37C51.433 99.3264 50.641 97.4184 51.199 95.9244L44.0529 91.6763Z" fill="url(#paint2_linear)"/>
<path d="M361.778 144.672L355.595 146.671M355.328 169.274L349.695 171.095L355.328 169.274ZM355.616 174.184L361.249 172.363L355.616 174.184ZM364.724 176.243L361.537 177.273L364.724 176.243ZM350.788 165.738L344.605 167.737L350.788 165.738ZM352.367 167.729L346.734 169.55L352.367 167.729ZM358.288 170.818L352.655 172.639L358.288 170.818ZM364.21 173.907L358.576 175.729L364.21 173.907ZM363.63 136.568L360.306 137.643L363.63 136.568ZM364.918 138.654L358.736 140.653L364.918 138.654ZM363.348 141.663L357.166 143.662L363.348 141.663ZM358.638 150.691L352.455 152.69L358.638 150.691ZM355.498 156.71L349.315 158.709L355.498 156.71ZM357.068 153.701L350.885 155.7L357.068 153.701ZM353.928 159.719L347.745 161.718L353.928 159.719ZM352.357 162.729L346.175 164.728L352.357 162.729ZM360.208 147.682L354.025 149.681L360.208 147.682Z" stroke="#007ACC" stroke-width="1.5" stroke-linecap="round" stroke-linejoin="round"/>
<path d="M336.288 127.896L330.105 129.895M325.723 153.828L320.09 155.649L325.723 153.828ZM326.011 158.738L331.644 156.917L326.011 158.738ZM337.565 160.006L331.932 161.828L337.565 160.006ZM325.297 148.962L319.115 150.961L325.297 148.962ZM323.728 151.971L317.545 153.97L323.728 151.971ZM328.684 155.372L323.05 157.194L328.684 155.372ZM334.605 158.462L328.971 160.283L334.605 158.462ZM337.664 162.476L334.892 163.372L337.664 162.476ZM336.986 122.667L333.246 123.876L336.986 122.667ZM337.858 124.887L331.675 126.886L337.858 124.887ZM333.148 133.915L326.965 135.914L333.148 133.915ZM330.008 139.934L323.825 141.933L330.008 139.934ZM331.578 136.924L325.395 138.923L331.578 136.924ZM328.438 142.943L322.255 144.942L328.438 142.943ZM326.868 145.953L320.685 147.952L326.868 145.953ZM334.718 130.906L328.535 132.905L334.718 130.906Z" stroke="#007ACC" stroke-width="1.5" stroke-linecap="round" stroke-linejoin="round"/>
<path d="M309.228 114.13L303.046 116.129M299.079 139.927L293.446 141.748L299.079 139.927ZM299.366 144.838L304.999 143.016L299.366 144.838ZM310.921 146.105L305.287 147.927L310.921 146.105ZM298.238 135.196L292.055 137.195L298.238 135.196ZM296.668 138.205L290.485 140.204L296.668 138.205ZM302.039 141.472L296.406 143.293L302.039 141.472ZM307.96 144.561L302.327 146.382L307.96 144.561ZM310.604 148.709L308.248 149.471L310.604 148.709ZM310.341 108.766L306.186 110.11L310.341 108.766ZM310.798 111.12L304.616 113.119L310.798 111.12ZM306.088 120.149L299.905 122.148L306.088 120.149ZM302.948 126.167L296.765 128.166L302.948 126.167ZM304.518 123.158L298.335 125.157L304.518 123.158ZM301.378 129.177L295.195 131.176L301.378 129.177ZM299.808 132.186L293.625 134.185L299.808 132.186ZM307.658 117.139L301.476 119.138L307.658 117.139Z" stroke="#007ACC" stroke-width="1.5" stroke-linecap="round" stroke-linejoin="round"/>
<path d="M282.038 98.4235L275.855 100.423M291.264 117.956L285.081 119.955L291.264 117.956ZM270.946 124.526L266.661 125.911L270.946 124.526ZM269.945 129.853L275.351 128.105L269.945 129.853ZM281.683 126.058L288.124 123.975L281.683 126.058ZM284.043 130.298L276.605 132.703L284.043 130.298ZM294.404 111.938L288.222 113.937L294.404 111.938ZM271.128 119.463L265.957 121.135L271.128 119.463ZM292.834 114.947L286.652 116.946L292.834 114.947ZM270.498 122.169L266 123.623L270.498 122.169ZM289.694 120.966L283.511 122.965L289.694 120.966ZM272.495 126.527L267.973 127.989L272.495 126.527ZM286.511 126.998L272.716 131.459L286.511 126.998ZM281.352 93.642L278.996 94.4039L281.352 93.642ZM283.608 95.4142L277.426 97.4131L283.608 95.4142ZM278.898 104.442L272.716 106.441L278.898 104.442ZM299.114 102.909L292.932 104.908L299.114 102.909ZM275.758 110.461L269.575 112.46L275.758 110.461ZM296.154 101.365L294.502 101.899L296.154 101.365ZM277.328 107.452L271.145 109.451L277.328 107.452ZM297.544 105.919L291.361 107.918L297.544 105.919ZM274.188 113.47L268.005 115.469L274.188 113.47ZM295.974 108.928L289.792 110.927L295.974 108.928ZM272.618 116.48L266.638 118.413L272.618 116.48ZM280.468 101.433L274.286 103.432L280.468 101.433Z" stroke="#007ACC" stroke-width="1.5" stroke-linecap="round" stroke-linejoin="round"/>
<path d="M252.772 86.1761L248.316 87.5751M263.725 105.109L257.817 107.019L263.725 105.109ZM255.098 107.898L251.088 109.195L255.098 107.898ZM240.093 112.749L238.716 113.195L240.093 112.749ZM250.483 114.394L254.087 113.228L250.483 114.394ZM255.777 112.662L260.585 111.127L255.777 112.662ZM257.444 117.146L250.558 119.373L257.444 117.146ZM266.865 99.09L260.957 101L266.865 99.09ZM255.67 102.71L251.693 103.995L255.67 102.71ZM243.233 106.731L237.326 108.641L243.233 106.731ZM265.295 102.099L259.387 104.01L265.295 102.099ZM255.384 105.304L251.391 106.595L255.384 105.304ZM241.663 109.74L235.756 111.65L241.663 109.74ZM262.155 108.118L256.271 110.021L262.155 108.118ZM254.7 110.529L250.785 111.794L254.7 110.529ZM259.015 114.137L250.18 116.993L259.015 114.137ZM255.875 120.156L253.518 120.918L255.875 120.156ZM255.611 80.2128L251.456 81.5563L255.611 80.2128ZM257.959 81.9554L249.886 84.5657L257.959 81.9554ZM257.101 89.7382L253.276 90.9749L257.101 89.7382ZM251.083 91.6838L245.176 93.594L251.083 91.6838ZM271.575 90.0619L265.667 91.9721L271.575 90.0619ZM256.529 94.9267L252.601 96.1967L256.529 94.9267ZM247.944 97.7025L242.036 99.6126L247.944 97.7025ZM270.414 87.9355L267.237 88.9626L270.414 87.9355ZM256.815 92.3325L252.903 93.5972L256.815 92.3325ZM249.514 94.6931L243.606 96.6033L249.514 94.6931ZM270.005 93.0713L264.097 94.9814L270.005 93.0713ZM256.243 97.5209L252.299 98.7962L256.243 97.5209ZM246.374 100.712L240.466 102.622L246.374 100.712ZM268.435 96.0807L262.527 97.9908L268.435 96.0807ZM255.956 100.115L251.996 101.396L255.956 100.115ZM244.803 103.721L238.895 105.631L244.803 103.721ZM257.387 87.1439L254.137 88.2234L257.387 87.1439ZM252.577 88.6992L246.746 90.5845L252.577 88.6992ZM257.673 84.5496L254.383 85.6133L257.673 84.5496Z" stroke="#007ACC" stroke-width="1.5" stroke-linecap="round" stroke-linejoin="round"/>
<path d="M231.791 67.7852L223.105 70.5935M238.651 88.0828L232.399 90.1041L238.651 88.0828ZM215.157 95.679L208.974 97.678L215.157 95.679ZM214.895 100.767L220.455 98.9694L214.895 100.767ZM229.193 96.1443L235.511 94.1015L229.193 96.1443ZM231.88 100.279L221.424 103.66L231.88 100.279ZM241.338 82.2106L235.54 84.0853L241.338 82.2106ZM218.297 89.6603L212.114 91.6593L218.297 89.6603ZM240.221 85.0734L233.97 87.0946L240.221 85.0734ZM216.727 92.6696L210.544 94.6686L216.727 92.6696ZM237.081 91.0922L230.829 93.1134L237.081 91.0922ZM217.431 97.4456L211.935 99.2225L217.431 97.4456ZM233.941 97.111L217.855 102.312L233.941 97.111ZM228.83 66.2406L224.675 67.5841L228.83 66.2406ZM237.389 70.9785L232.216 72.6511L237.389 70.9785ZM226.147 74.6133L219.965 76.6123L226.147 74.6133ZM240.643 74.93L236.441 76.2887L240.643 74.93ZM223.007 80.632L216.824 82.631L223.007 80.632ZM239.3 72.8624L234.855 74.2997L239.3 72.8624ZM224.577 77.6228L218.394 79.6218L224.577 77.6228ZM241.461 77.1673L237.128 78.5682L241.461 77.1673ZM221.437 83.6414L215.255 85.6404L221.437 83.6414ZM241.703 79.5909L236.862 81.1561L241.703 79.5909ZM219.867 86.6508L213.685 88.6498L219.867 86.6508ZM234.751 69.3296L229.255 71.1066L234.751 69.3296ZM227.717 71.6039L221.535 73.6029L227.717 71.6039Z" stroke="#007ACC" stroke-width="1.5" stroke-linecap="round" stroke-linejoin="round"/>
<path d="M208.963 55.8753L203.536 57.6301M197.614 82.0607L186.146 85.7683L197.614 82.0607ZM192.067 88.8575L197.495 87.1027L192.067 88.8575ZM202.256 90.5666L197.988 91.9465L202.256 90.5666ZM200.754 76.042L194.434 78.0853L200.754 76.042ZM185.653 80.9245L183.511 81.6168L185.653 80.9245ZM199.184 79.0513L192.864 81.0946L199.184 79.0513ZM188.613 82.4689L183.186 84.2237L188.613 82.4689ZM196.044 85.07L189.107 87.3129L196.044 85.07ZM200.455 88.6471L195.028 90.4019L200.455 88.6471ZM200.082 51.2417L199.212 51.523L200.082 51.2417ZM203.042 52.7863L197.642 54.5324L203.042 52.7863ZM206.003 54.3308L200.575 56.0856L206.003 54.3308ZM214.884 58.9646L209.456 60.7193L214.884 58.9646ZM207.506 61.4134L201.186 63.4568L207.506 61.4134ZM216.386 63.4822L215.378 63.8084L216.386 63.4822ZM205.464 67.0137L199.144 69.0571L205.464 67.0137ZM217.63 60.5785L212.417 62.2638L217.63 60.5785ZM207.034 64.0044L200.714 66.0478L207.034 64.0044ZM203.894 70.0231L197.574 72.0666L203.894 70.0231ZM202.324 73.0325L196.004 75.0759L202.324 73.0325ZM211.923 57.4199L203.854 60.029L211.923 57.4199Z" stroke="#007ACC" stroke-width="1.5" stroke-linecap="round" stroke-linejoin="round"/>
<path d="M182.952 41.7698L166.412 47.1175M182.507 64.4294L176.325 66.4284L182.507 64.4294ZM164.671 70.1962L160.216 71.6368L164.671 70.1962ZM164.755 75.1724L179.361 70.4502L164.755 75.1724ZM185.647 58.4107L179.464 60.4097L185.647 58.4107ZM162.727 65.8212L158.282 67.2584L162.727 65.8212ZM184.077 61.42L177.894 63.419L184.077 61.42ZM163.196 68.1712L158.94 69.5474L163.196 68.1712ZM180.937 67.4388L174.611 69.4841L180.937 67.4388ZM167.396 71.8169L162.113 73.525L167.396 71.8169ZM176.876 73.7553L168.633 76.4204L176.876 73.7553ZM179.791 40.2901L168.205 44.0362L179.791 40.2901ZM186.85 45.5128L182.549 46.9035L186.85 45.5128ZM169.454 51.1373L163.272 53.1364L169.454 51.1373ZM188.258 50.061L183.637 51.5552L188.258 50.061ZM166.314 57.1562L160.131 59.1552L166.314 57.1562ZM187.852 47.6907L183.563 49.0773L187.852 47.6907ZM167.884 54.1468L161.702 56.1458L167.884 54.1468ZM188.06 52.6269L182.605 54.3908L188.06 52.6269ZM164.744 60.1655L158.787 62.0915L164.744 60.1655ZM187.168 55.4171L181.034 57.4003L187.168 55.4171ZM163.28 63.1408L158.199 64.7835L163.28 63.1408ZM185.242 43.5312L180.431 45.0864L185.242 43.5312ZM171.024 48.128L164.842 50.127L171.024 48.128Z" stroke="#007ACC" stroke-width="1.5" stroke-linecap="round" stroke-linejoin="round"/>
<path d="M146.506 28.712L141.383 30.3682M151.828 49.507L144.019 52.0318L151.828 49.507ZM140.397 53.2031L135.766 54.7002L140.397 53.2031ZM136.028 59.6191L145.299 56.6215L136.028 59.6191ZM158.358 42.3922L150.187 45.0341L158.358 42.3922ZM141.759 47.7591L137.015 49.293L141.759 47.7591ZM155.093 45.9495L147.103 48.533L155.093 45.9495ZM141.081 50.4801L136.391 51.9965L141.081 50.4801ZM148.564 53.0642L141.581 55.3023L148.564 53.0642ZM139.638 55.9501L135.142 57.4037L139.638 55.9501ZM142.034 60.1788L138.988 61.1636L142.034 60.1788ZM144.042 22.0034L143.256 22.2576L144.042 22.0034ZM147.003 23.548L142.632 24.9611L147.003 23.548ZM147.184 25.9909L142.007 27.6647L147.184 25.9909ZM145.15 34.1541L140.135 35.7753L145.15 34.1541ZM164.766 32.8152L159.438 34.5377L164.766 32.8152ZM143.793 39.596L138.887 41.1824L143.793 39.596ZM144.471 36.8751L139.511 38.4788L144.471 36.8751ZM164.887 35.2777L156.355 38.0363L164.887 35.2777ZM143.115 42.317L138.263 43.8858L143.115 42.317ZM161.623 38.8349L153.271 41.5352L161.623 38.8349ZM142.437 45.038L137.639 46.5895L142.437 45.038ZM145.828 31.433L140.759 33.0718L145.828 31.433Z" stroke="#007ACC" stroke-width="1.5" stroke-linecap="round" stroke-linejoin="round"/>
<g clip-path="url(#clip0)">
<path d="M151.169 156.607V178.358H172.92H194.671V156.607V134.856H172.92H151.169V156.607ZM186.226 154.874C187.331 155.15 188.173 155.64 188.947 156.441C189.347 156.869 189.941 157.65 189.989 157.836C190.003 157.891 188.111 159.162 186.965 159.873C186.923 159.901 186.758 159.721 186.571 159.445C186.012 158.63 185.425 158.278 184.527 158.216C183.208 158.126 182.359 158.816 182.366 159.97C182.366 160.308 182.414 160.508 182.552 160.784C182.842 161.385 183.381 161.744 185.073 162.476C188.187 163.816 189.52 164.7 190.348 165.956C191.274 167.358 191.481 169.595 190.852 171.259C190.162 173.069 188.449 174.298 186.04 174.705C185.294 174.836 183.526 174.816 182.725 174.671C180.978 174.36 179.321 173.497 178.299 172.364C177.898 171.922 177.118 170.769 177.167 170.686C177.187 170.659 177.367 170.548 177.567 170.431C177.76 170.32 178.492 169.899 179.183 169.499L180.433 168.774L180.695 169.16C181.061 169.72 181.862 170.486 182.345 170.742C183.733 171.473 185.639 171.37 186.578 170.527C186.979 170.161 187.144 169.782 187.144 169.222C187.144 168.718 187.082 168.497 186.82 168.118C186.481 167.634 185.791 167.227 183.83 166.378C181.586 165.411 180.619 164.81 179.735 163.857C179.224 163.305 178.741 162.421 178.541 161.682C178.375 161.068 178.333 159.528 178.465 158.906C178.927 156.738 180.564 155.226 182.925 154.777C183.692 154.632 185.473 154.687 186.226 154.874ZM176.013 156.69L176.027 158.471H173.196H170.365V166.516V174.56H168.363H166.36V166.516V158.471H163.529H160.698V156.724C160.698 155.758 160.719 154.95 160.746 154.929C160.767 154.901 164.213 154.887 168.39 154.894L175.993 154.915L176.013 156.69Z" fill="#007ACC"/>
</g>
<g clip-path="url(#clip1)">
<path d="M249.048 134.856H205.546V178.358H249.048V134.856Z" fill="#F7DF1E"/>
<path d="M216.984 171.209L220.313 169.195C220.956 170.333 221.54 171.297 222.941 171.297C224.285 171.297 225.132 170.771 225.132 168.727V154.827H229.22V168.785C229.22 173.019 226.738 174.947 223.117 174.947C219.846 174.947 217.948 173.253 216.984 171.209" fill="black"/>
<path d="M231.44 170.771L234.769 168.844C235.645 170.275 236.784 171.326 238.798 171.326C240.492 171.326 241.573 170.479 241.573 169.311C241.573 167.909 240.463 167.413 238.594 166.596L237.572 166.157C234.623 164.902 232.666 163.325 232.666 159.996C232.666 156.93 235.002 154.594 238.653 154.594C241.251 154.594 243.12 155.499 244.463 157.864L241.28 159.908C240.58 158.653 239.821 158.157 238.653 158.157C237.455 158.157 236.696 158.916 236.696 159.908C236.696 161.135 237.455 161.631 239.207 162.391L240.229 162.829C243.704 164.318 245.661 165.836 245.661 169.253C245.661 172.932 242.77 174.947 238.886 174.947C235.09 174.947 232.637 173.137 231.44 170.771" fill="black"/>
</g>
<defs>
<linearGradient id="paint0_linear" x1="67.8536" y1="150.72" x2="67.8536" y2="65.0968" gradientUnits="userSpaceOnUse">
<stop stop-color="white" stop-opacity="0.5"/>
<stop offset="0.3011" stop-color="#1F1F1F" stop-opacity="0"/>
</linearGradient>
<linearGradient id="paint1_linear" x1="41.7282" y1="100.111" x2="93.7834" y2="100.111" gradientUnits="userSpaceOnUse">
<stop stop-color="white" stop-opacity="0"/>
<stop offset="0.3828" stop-color="white"/>
<stop offset="0.6387" stop-color="white"/>
<stop offset="0.9247" stop-color="white" stop-opacity="0"/>
</linearGradient>
<linearGradient id="paint2_linear" x1="93.9799" y1="100.111" x2="41.9232" y2="100.111" gradientUnits="userSpaceOnUse">
<stop stop-color="white" stop-opacity="0"/>
<stop offset="0.3828" stop-color="white"/>
<stop offset="0.6387" stop-color="white"/>
<stop offset="0.9247" stop-color="white" stop-opacity="0"/>
</linearGradient>
<clipPath id="clip0">
<rect width="43.5019" height="43.5019" fill="white" transform="translate(151.169 134.856)"/>
</clipPath>
<clipPath id="clip1">
<rect width="43.5019" height="43.5019" fill="white" transform="translate(205.546 134.856)"/>
</clipPath>
</defs>
</svg>
