<svg width="1500" height="500" viewBox="0 0 1500 500" fill="none" xmlns="http://www.w3.org/2000/svg">
<rect width="1500" height="500" fill="#343434"/>
<path fill-rule="evenodd" clip-rule="evenodd" d="M1342.02 254.949V227.148C1342.02 212.595 1339.61 200.567 1334.78 191.063C1329.95 181.485 1323.2 174.357 1314.51 169.679C1305.82 164.927 1295.69 162.551 1284.11 162.551C1272.84 162.551 1263.38 164.585 1255.72 168.652L1273.32 186.253C1274.38 186.193 1275.45 186.162 1276.53 186.162C1288.71 186.162 1298.29 189.949 1305.27 197.522C1312.2 204.972 1315.69 215.353 1315.74 228.664L1342.02 254.949ZM1247.18 174.474L1261.2 188.5C1258.71 189.323 1256.32 190.363 1254.03 191.62C1247.5 195.258 1242.34 200.567 1238.55 207.546C1234.77 214.526 1232.87 222.99 1232.87 232.939V248.358L1206.59 241.315V164.779H1231.98V191.508H1234.21C1237.3 184.817 1241.62 179.139 1247.18 174.474ZM1342.02 269.318L1315.74 243.034V270.561L1342.02 277.604V269.318ZM209.411 157.708L213.096 147.672H239.758L236.195 157.708H209.411ZM183.615 227.96L144 335.849H172.957L195.888 271.252H288.13L290.525 278H318.777L270.922 147.672H244.26L279.432 246.75H204.586L211.256 227.96H183.615ZM443.707 339.413C427.224 339.413 413.005 335.774 401.051 328.498C389.171 321.147 380.001 310.901 373.541 297.759C367.156 284.542 363.963 269.173 363.963 251.65C363.963 246.411 364.249 241.358 364.819 236.491H390.374L390.373 236.503H452.611V259.224H390.306C390.682 270.605 392.89 280.369 396.93 288.515C401.459 297.425 407.733 304.219 415.752 308.896C423.771 313.5 433.089 315.801 443.707 315.801C450.612 315.801 456.849 314.836 462.418 312.906C468.061 310.901 472.924 307.931 477.008 303.996C481.091 299.986 484.247 295.012 486.474 289.072L511.868 296.2C509.195 304.813 504.703 312.386 498.391 318.92C492.08 325.38 484.284 330.428 475.003 334.067C465.722 337.631 455.29 339.413 443.707 339.413ZM554.524 164.779V335.849H580.808V227.593C580.808 219.871 582.664 213.003 586.377 206.989C590.163 200.901 595.287 196.149 601.746 192.733C608.28 189.244 615.705 187.499 624.021 187.499C627.511 187.499 630.815 187.759 633.933 188.278C637.126 188.724 639.168 189.058 640.059 189.281V162.551C638.574 162.403 636.384 162.291 633.488 162.217C630.592 162.143 628.179 162.106 626.249 162.106C616.002 162.106 606.795 164.741 598.628 170.013C590.46 175.285 584.817 182.153 581.699 190.617H579.917V164.779H554.524ZM710.545 293.195H736.053L691.569 164.779H663.058L710.545 293.195ZM743.312 293.195H768.82L816.308 164.779H787.796L743.312 293.195ZM856.013 398.886C859.502 399.629 863.475 400 867.93 400C875.874 400 883.002 398.589 889.313 395.768C895.699 392.946 901.305 388.603 906.131 382.737C910.957 376.946 915.004 369.632 918.271 360.796L952.609 268.105H926.582L915.152 301.1H913.37L901.94 268.105H875.647L900.896 336.74L895.996 350.105C892.803 358.792 889.276 365.066 885.415 368.927C881.629 372.862 877.285 375.052 872.385 375.498C867.484 375.943 861.841 375.349 855.456 373.716L848.773 396.882C850.11 397.55 852.523 398.218 856.013 398.886ZM990.886 164.779L970.269 220.433H943.095L962.375 164.779H990.886ZM866.148 164.779L885.427 220.433H858.11L837.636 164.779H866.148ZM1088.95 339.413C1073.51 339.413 1059.96 335.737 1048.3 328.387C1036.72 321.036 1027.66 310.752 1021.12 297.536C1014.66 284.32 1011.43 268.876 1011.43 251.205C1011.43 233.385 1014.66 217.83 1021.12 204.539C1027.66 191.248 1036.72 180.928 1048.3 173.577C1059.96 166.226 1073.51 162.551 1088.95 162.551C1104.39 162.551 1117.91 166.226 1129.49 173.577C1141.15 180.928 1150.21 191.248 1156.67 204.539C1163.2 217.83 1166.47 233.385 1166.47 251.205C1166.47 268.876 1163.2 284.32 1156.67 297.536C1150.21 310.752 1141.15 321.036 1129.49 328.387C1117.91 335.737 1104.39 339.413 1088.95 339.413ZM1088.95 315.801C1100.68 315.801 1110.33 312.794 1117.91 306.78C1125.48 300.766 1131.09 292.858 1134.73 283.058C1138.36 273.257 1140.18 262.639 1140.18 251.205C1140.18 239.77 1138.36 229.115 1134.73 219.24C1131.09 209.365 1125.48 201.383 1117.91 195.295C1110.33 189.207 1100.68 186.162 1088.95 186.162C1077.22 186.162 1067.57 189.207 1059.99 195.295C1052.42 201.383 1046.81 209.365 1043.18 219.24C1039.54 229.115 1037.72 239.77 1037.72 251.205C1037.72 262.639 1039.54 273.257 1043.18 283.058C1046.81 292.858 1052.42 300.766 1059.99 306.78C1067.57 312.794 1077.22 315.801 1088.95 315.801ZM1232.87 279.529L1206.59 272.486V335.849H1232.87V279.529ZM1342.02 308.774L1315.74 301.731V335.849H1342.02V308.774Z" fill="white"/>
<path fill-rule="evenodd" clip-rule="evenodd" d="M268.988 111L266.791 105.018H234.594L232.398 111H268.988ZM231.296 114H270.089L274.863 127H226.523L231.296 114ZM221.78 139.916L225.382 130.108H276.004L279.605 139.916H252.944L251.584 136.085H249.802L248.442 139.916H221.78ZM264.949 100L266.424 104.018H234.962L236.437 100H264.949ZM364.798 222C362.375 228.91 360.702 236.307 359.777 244.193H385.331C385.826 236.371 387.778 228.974 391.187 222H364.798ZM478.649 222H505.343C507.541 229.626 508.867 238.293 509.321 248H447.568V244.205H482.768C482.768 236.064 481.395 228.662 478.649 222ZM366.749 216.924H394.006C397.829 210.841 402.766 205.753 408.816 201.66C410.894 200.248 413.075 199.028 415.361 198H377.708C374.215 202.508 371.145 207.515 368.499 213.02C367.886 214.303 367.303 215.604 366.749 216.924ZM460.716 200.435C459.274 199.53 457.778 198.718 456.228 198H493.861C497.489 203.033 500.585 208.856 503.15 215.471C503.336 215.95 503.518 216.435 503.696 216.924H476.226C472.486 210.03 467.316 204.534 460.716 200.435ZM489.85 193H381.945C385.975 188.65 390.478 184.854 395.451 181.613C407.034 174.039 420.548 170.253 435.992 170.253C444.901 170.253 453.7 171.738 462.387 174.708C471.074 177.678 478.982 182.504 486.11 189.186C487.404 190.387 488.651 191.658 489.85 193ZM509.477 253.051H447.568V266.925H509.498V255.788C509.498 254.867 509.491 253.955 509.477 253.051ZM1220.37 225.451L1246.66 232.494V263.665L1220.37 256.622V225.451ZM1329.52 254.697V285.868L1355.8 292.91V261.74L1329.52 254.697ZM861.557 283.159L844.019 235.488H871.336L887.85 283.159H861.557ZM912.491 283.159L929.005 235.488H956.178L938.518 283.159H912.491ZM745.975 292L749.244 283.159H723.736L720.997 291.064H719.215L716.477 283.159H690.969L694.238 292H745.975ZM696.087 297H744.126L740.058 308H700.155L696.087 297ZM702.004 313L706.742 325.813H733.471L738.209 313H702.004ZM330.353 283.159H302.069L305.918 294H334.334L330.353 283.159ZM307.693 299H336.17L339.474 308H310.887L307.693 299ZM314.082 317L312.757 313.267H341.408L342.779 317H314.082ZM315.857 322L317.277 326H346.084L344.615 322H315.857ZM321.664 338.358L319.052 331H347.92L350.621 338.358H321.664ZM236.687 155.199H209.903L202.265 176H229.303L236.687 155.199ZM201.164 179H228.238L224.688 189H209V192H223.623L220.428 201H193.086L201.164 179ZM219.363 204H191.984L184.107 225.451H211.748L219.363 204ZM554.524 216.453V186.595L582.747 214.817C581.454 218.779 580.808 223.037 580.808 227.593V242.737L554.524 216.453ZM601.747 192.733C595.872 195.839 591.103 200.051 587.439 205.368L554.524 172.453V164.779H579.917V190.617H581.699C584.818 182.153 590.461 175.285 598.628 170.013C606.795 164.741 616.002 162.106 626.249 162.106C628.179 162.106 630.592 162.143 633.488 162.217C636.384 162.291 638.574 162.403 640.059 162.551V189.281C639.168 189.058 637.126 188.724 633.934 188.278C630.815 187.759 627.511 187.499 624.021 187.499C615.705 187.499 608.28 189.244 601.747 192.733ZM580.808 256.879L554.524 230.595V300.453L580.808 326.737V256.879ZM554.524 335.849V314.595L575.778 335.849H554.524Z" fill="#5BC7EA"/>
</svg>
